<?xml version="1.0" encoding="UTF-8" standalone="no"?>
<!DOCTYPE svg PUBLIC "-//W3C//DTD SVG 1.1//EN" "http://www.w3.org/Graphics/SVG/1.1/DTD/svg11.dtd">
<svg width="100%" height="100%" viewBox="0 0 256 256" version="1.1" xmlns="http://www.w3.org/2000/svg" xmlns:xlink="http://www.w3.org/1999/xlink" xml:space="preserve" xmlns:serif="http://www.serif.com/" style="fill-rule:evenodd;clip-rule:evenodd;stroke-linecap:round;stroke-linejoin:round;stroke-miterlimit:1.5;">
    <g transform="matrix(1,0,0,1,-280.481839,-293.945773)">
        <g id="Reset" transform="matrix(1,0,0,1,280.481839,293.945773)">
            <rect x="0" y="0" width="256" height="256" style="fill:none;"/>
            <g transform="matrix(-2.540155,0,-0,-2.540155,357.976677,558.299768)">
                <path d="M125.464,155.827L137.861,173.493L113.067,173.493L125.464,155.827Z" style="fill:rgb(228,228,228);"/>
            </g>
            <g transform="matrix(2.540155,-0,0,2.540155,-95.320695,-303.294545)">
                <path d="M125.464,155.827L137.861,173.493L113.067,173.493L125.464,155.827Z" style="fill:rgb(228,228,228);"/>
            </g>
            <g transform="matrix(2.889108,0,0,2.889108,-82.784745,-399.063437)">
                <path d="M42.25,180.61C42.413,170.406 44.789,156.762 65.015,150.811C84.229,145.158 96.752,158.497 96.752,158.497" style="fill:none;stroke:rgb(228,228,228);stroke-width:5.37px;"/>
            </g>
            <g transform="matrix(-2.888931,0.031934,-0.031934,-2.888931,351.749829,652.913631)">
                <path d="M42.423,182.167C42.532,172.24 46.038,155.307 65.015,150.811C83.218,146.499 96.752,158.497 96.752,158.497" style="fill:none;stroke:rgb(228,228,228);stroke-width:5.37px;"/>
            </g>
        </g>
    </g>
</svg>
